<?xml version="1.0" encoding="utf-8"?>
<!-- Generator: Adobe Illustrator 21.0.0, SVG Export Plug-In . SVG Version: 6.00 Build 0)  -->
<svg version="1.1" id="Layer_1" xmlns="http://www.w3.org/2000/svg" xmlns:xlink="http://www.w3.org/1999/xlink" x="0px" y="0px"
	 viewBox="0 0 22 16" style="enable-background:new 0 0 22 16;" xml:space="preserve">
<title>menu</title>
<path d="M2.5,0.7h17c0.9,0,1.7,0.8,1.7,1.7l0,0c0,0.9-0.8,1.7-1.7,1.7h-17C1.6,4,0.8,3.3,0.8,2.4l0,0C0.8,1.4,1.6,0.7,2.5,0.7z"/>
<path d="M2.5,6.3h17c0.9,0,1.7,0.8,1.7,1.7l0,0c0,0.9-0.8,1.7-1.7,1.7h-17C1.6,9.7,0.8,8.9,0.8,8l0,0C0.8,7.1,1.6,6.3,2.5,6.3z"/>
<path d="M2.5,12.2h17c0.9,0,1.7,0.8,1.7,1.7v0c0,0.9-0.8,1.7-1.7,1.7h-17c-0.9,0-1.7-0.8-1.7-1.7v0C0.8,12.9,1.6,12.2,2.5,12.2z"/>
</svg>
